{
    "asset" : {
        "generator" : "Khronos glTF Blender I/O v1.4.40",
        "version" : "2.0"
    },
    "extensionsUsed" : [
        "KHR_materials_transmission"
    ],
    "scene" : 0,
    "scenes" : [
        {
            "extras" : {},
            "name" : "Scene",
            "nodes" : [
                0
            ]
        }
    ],
    "nodes" : [
        {
            "mesh" : 0,
            "name" : "Sphere",
            "rotation" : [
                -0.5057313442230225,
                -0.490574449300766,
                -0.5062902569770813,
                0.4972350299358368
            ],
            "scale" : [
                0.9382205009460449,
                0.9382203221321106,
                0.9382203817367554
            ],
            "translation" : [
                0.044650863856077194,
                0.001670987345278263,
                -0.00419542845338583
            ]
        }
    ],
    "materials" : [
        {
            "doubleSided" : true,
            "name" : "Material.002",
            "pbrMetallicRoughness" : {
                "baseColorFactor" : [
                    0.800000011920929,
                    0.800000011920929,
                    0.800000011920929,
                    1
                ],
                "metallicFactor" : 0,
                "roughnessFactor" : 0.11261260509490967
            }
        },
        {
            "doubleSided" : true,
            "name" : "Material.003",
            "pbrMetallicRoughness" : {
                "baseColorFactor" : [
                    0.8302116990089417,
                    0,
                    1,
                    1
                ],
                "metallicFactor" : 0.7837837934494019,
                "roughnessFactor" : 0.8063063621520996
            }
        },
        {
            "doubleSided" : true,
            "name" : "Material.004",
            "pbrMetallicRoughness" : {
                "baseColorFactor" : [
                    0,
                    0,
                    0,
                    1
                ],
                "roughnessFactor" : 0.5
            }
        },
        {
            "doubleSided" : true,
            "extensions" : {
                "KHR_materials_transmission" : {
                    "transmissionFactor" : 1
                }
            },
            "name" : "Material.001",
            "pbrMetallicRoughness" : {
                "baseColorFactor" : [
                    0.800000011920929,
                    0.800000011920929,
                    0.800000011920929,
                    1
                ],
                "metallicFactor" : 0,
                "roughnessFactor" : 0
            }
        }
    ],
    "meshes" : [
        {
            "name" : "Sphere",
            "primitives" : [
                {
                    "attributes" : {
                        "POSITION" : 0,
                        "NORMAL" : 1,
                        "TEXCOORD_0" : 2
                    },
                    "indices" : 3,
                    "material" : 0
                },
                {
                    "attributes" : {
                        "POSITION" : 4,
                        "NORMAL" : 5,
                        "TEXCOORD_0" : 6
                    },
                    "indices" : 7,
                    "material" : 1
                },
                {
                    "attributes" : {
                        "POSITION" : 8,
                        "NORMAL" : 9,
                        "TEXCOORD_0" : 10
                    },
                    "indices" : 11,
                    "material" : 2
                },
                {
                    "attributes" : {
                        "POSITION" : 12,
                        "NORMAL" : 13,
                        "TEXCOORD_0" : 14
                    },
                    "indices" : 15,
                    "material" : 3
                }
            ]
        }
    ],
    "accessors" : [
        {
            "bufferView" : 0,
            "componentType" : 5126,
            "count" : 671,
            "max" : [
                0.9386054873466492,
                0.9988058805465698,
                0.9990999102592468
            ],
            "min" : [
                -0.9998719692230225,
                -1.0007908344268799,
                -1.0004128217697144
            ],
            "type" : "VEC3"
        },
        {
            "bufferView" : 1,
            "componentType" : 5126,
            "count" : 671,
            "type" : "VEC3"
        },
        {
            "bufferView" : 2,
            "componentType" : 5126,
            "count" : 671,
            "type" : "VEC2"
        },
        {
            "bufferView" : 3,
            "componentType" : 5123,
            "count" : 3276,
            "type" : "SCALAR"
        },
        {
            "bufferView" : 4,
            "componentType" : 5126,
            "count" : 203,
            "max" : [
                0.9704146981239319,
                0.6748257875442505,
                0.6040592193603516
            ],
            "min" : [
                0.20452259480953217,
                -0.6785858273506165,
                -0.6311578750610352
            ],
            "type" : "VEC3"
        },
        {
            "bufferView" : 5,
            "componentType" : 5126,
            "count" : 203,
            "type" : "VEC3"
        },
        {
            "bufferView" : 6,
            "componentType" : 5126,
            "count" : 203,
            "type" : "VEC2"
        },
        {
            "bufferView" : 7,
            "componentType" : 5123,
            "count" : 606,
            "type" : "SCALAR"
        },
        {
            "bufferView" : 8,
            "componentType" : 5126,
            "count" : 92,
            "max" : [
                0.9704146981239319,
                0.24646387994289398,
                0.2997193932533264
            ],
            "min" : [
                0.4373602867126465,
                -0.39420634508132935,
                -0.2802105247974396
            ],
            "type" : "VEC3"
        },
        {
            "bufferView" : 9,
            "componentType" : 5126,
            "count" : 92,
            "type" : "VEC3"
        },
        {
            "bufferView" : 10,
            "componentType" : 5126,
            "count" : 92,
            "type" : "VEC2"
        },
        {
            "bufferView" : 11,
            "componentType" : 5123,
            "count" : 198,
            "type" : "SCALAR"
        },
        {
            "bufferView" : 12,
            "componentType" : 5126,
            "count" : 559,
            "max" : [
                1.0568761825561523,
                1.0237245559692383,
                1.0479450225830078
            ],
            "min" : [
                -1.065305471420288,
                -1.0984573364257812,
                -1.0742369890213013
            ],
            "type" : "VEC3"
        },
        {
            "bufferView" : 13,
            "componentType" : 5126,
            "count" : 559,
            "type" : "VEC3"
        },
        {
            "bufferView" : 14,
            "componentType" : 5126,
            "count" : 559,
            "type" : "VEC2"
        },
        {
            "bufferView" : 15,
            "componentType" : 5123,
            "count" : 2880,
            "type" : "SCALAR"
        }
    ],
    "bufferViews" : [
        {
            "buffer" : 0,
            "byteLength" : 8052,
            "byteOffset" : 0
        },
        {
            "buffer" : 0,
            "byteLength" : 8052,
            "byteOffset" : 8052
        },
        {
            "buffer" : 0,
            "byteLength" : 5368,
            "byteOffset" : 16104
        },
        {
            "buffer" : 0,
            "byteLength" : 6552,
            "byteOffset" : 21472
        },
        {
            "buffer" : 0,
            "byteLength" : 2436,
            "byteOffset" : 28024
        },
        {
            "buffer" : 0,
            "byteLength" : 2436,
            "byteOffset" : 30460
        },
        {
            "buffer" : 0,
            "byteLength" : 1624,
            "byteOffset" : 32896
        },
        {
            "buffer" : 0,
            "byteLength" : 1212,
            "byteOffset" : 34520
        },
        {
            "buffer" : 0,
            "byteLength" : 1104,
            "byteOffset" : 35732
        },
        {
            "buffer" : 0,
            "byteLength" : 1104,
            "byteOffset" : 36836
        },
        {
            "buffer" : 0,
            "byteLength" : 736,
            "byteOffset" : 37940
        },
        {
            "buffer" : 0,
            "byteLength" : 396,
            "byteOffset" : 38676
        },
        {
            "buffer" : 0,
            "byteLength" : 6708,
            "byteOffset" : 39072
        },
        {
            "buffer" : 0,
            "byteLength" : 6708,
            "byteOffset" : 45780
        },
        {
            "buffer" : 0,
            "byteLength" : 4472,
            "byteOffset" : 52488
        },
        {
            "buffer" : 0,
            "byteLength" : 5760,
            "byteOffset" : 56960
        }
    ],
    "buffers" : [
        {
            "byteLength" : 62720,
            "uri" : "data:application/octet-stream;base64,"
        }
    ]
}
