{
    "asset" : {
        "generator" : "Khronos glTF Blender I/O v1.4.40",
        "version" : "2.0"
    },
    "extensionsUsed" : [
        "KHR_materials_transmission"
    ],
    "scene" : 0,
    "scenes" : [
        {
            "extras" : {},
            "name" : "Scene",
            "nodes" : [
                0,
                1,
                3,
                4,
                5,
                6
            ]
        }
    ],
    "nodes" : [
        {
            "name" : "Light",
            "rotation" : [
                0.427596777677536,
                0.6342103481292725,
                -0.2043227106332779,
                0.610893189907074
            ],
            "translation" : [
                4.9520182609558105,
                3.6251678466796875,
                2.218366861343384
            ]
        },
        {
            "mesh" : 0,
            "name" : "Sphere",
            "rotation" : [
                -0.5057313442230225,
                -0.490574449300766,
                -0.5062902569770813,
                0.4972350299358368
            ],
            "scale" : [
                0.9082858562469482,
                0.9082856774330139,
                0.9082857370376587
            ],
            "translation" : [
                -0.0018645101226866245,
                0.001670987345278263,
                -0.00419542845338583
            ]
        },
        {
            "name" : "Camera",
            "rotation" : [
                0.5257099866867065,
                -0.050872623920440674,
                0.03151734918355942,
                0.8485562801361084
            ],
            "translation" : [
                -1.1995162963867188,
                4.958309173583984,
                10.033992767333984
            ]
        },
        {
            "children" : [
                2
            ],
            "name" : "Empty",
            "rotation" : [
                0.5036576390266418,
                -0.427814781665802,
                0.5889708399772644,
                0.4652062654495239
            ],
            "scale" : [
                1.0000332593917847,
                1.000033974647522,
                1.000034213066101
            ],
            "translation" : [
                0.9960384964942932,
                5.307347297668457,
                -0.058384642004966736
            ]
        },
        {
            "name" : "Light.001",
            "rotation" : [
                0.5749545693397522,
                0.5978033542633057,
                -0.5121445059776306,
                0.22308428585529327
            ],
            "translation" : [
                7.246817588806152,
                -1.2934902906417847,
                -3.218737840652466
            ]
        },
        {
            "name" : "Light.002",
            "rotation" : [
                0.11522573977708817,
                0.5281989574432373,
                -0.7453481554985046,
                -0.39010897278785706
            ],
            "translation" : [
                -5.680768966674805,
                -1.6511144638061523,
                -10.542113304138184
            ]
        },
        {
            "name" : "Light.003",
            "rotation" : [
                -0.2208356410264969,
                -0.31338998675346375,
                -0.8824242949485779,
                -0.27266451716423035
            ],
            "translation" : [
                -3.9825711250305176,
                -5.796482563018799,
                6.430863380432129
            ]
        }
    ],
    "animations" : [
        {
            "channels" : [
                {
                    "sampler" : 0,
                    "target" : {
                        "node" : 3,
                        "path" : "translation"
                    }
                },
                {
                    "sampler" : 1,
                    "target" : {
                        "node" : 3,
                        "path" : "rotation"
                    }
                }
            ],
            "name" : "EmptyAction.003",
            "samplers" : [
                {
                    "input" : 16,
                    "interpolation" : "LINEAR",
                    "output" : 17
                },
                {
                    "input" : 16,
                    "interpolation" : "LINEAR",
                    "output" : 18
                }
            ]
        }
    ],
    "materials" : [
        {
            "doubleSided" : true,
            "name" : "Material.002",
            "pbrMetallicRoughness" : {
                "baseColorFactor" : [
                    0.800000011920929,
                    0.800000011920929,
                    0.800000011920929,
                    1
                ],
                "metallicFactor" : 0,
                "roughnessFactor" : 0.11261260509490967
            }
        },
        {
            "doubleSided" : true,
            "name" : "Material.003",
            "pbrMetallicRoughness" : {
                "baseColorFactor" : [
                    0.07599281519651413,
                    0.3629491627216339,
                    0.42002442479133606,
                    1
                ],
                "metallicFactor" : 0.7837837934494019,
                "roughnessFactor" : 0.8063063621520996
            }
        },
        {
            "doubleSided" : true,
            "emissiveFactor" : [
                1,
                0.12379547997914742,
                0.16478185305400395
            ],
            "name" : "Material.004",
            "pbrMetallicRoughness" : {}
        },
        {
            "doubleSided" : true,
            "extensions" : {
                "KHR_materials_transmission" : {
                    "transmissionFactor" : 1
                }
            },
            "name" : "Material.001",
            "pbrMetallicRoughness" : {
                "baseColorFactor" : [
                    0.800000011920929,
                    0.800000011920929,
                    0.800000011920929,
                    1
                ],
                "metallicFactor" : 0,
                "roughnessFactor" : 0
            }
        }
    ],
    "meshes" : [
        {
            "name" : "Sphere",
            "primitives" : [
                {
                    "attributes" : {
                        "POSITION" : 0,
                        "NORMAL" : 1,
                        "TEXCOORD_0" : 2
                    },
                    "indices" : 3,
                    "material" : 0
                },
                {
                    "attributes" : {
                        "POSITION" : 4,
                        "NORMAL" : 5,
                        "TEXCOORD_0" : 6
                    },
                    "indices" : 7,
                    "material" : 1
                },
                {
                    "attributes" : {
                        "POSITION" : 8,
                        "NORMAL" : 9,
                        "TEXCOORD_0" : 10
                    },
                    "indices" : 11,
                    "material" : 2
                },
                {
                    "attributes" : {
                        "POSITION" : 12,
                        "NORMAL" : 13,
                        "TEXCOORD_0" : 14
                    },
                    "indices" : 15,
                    "material" : 3
                }
            ]
        }
    ],
    "accessors" : [
        {
            "bufferView" : 0,
            "componentType" : 5126,
            "count" : 671,
            "max" : [
                1.000000238418579,
                1,
                1.0000003576278687
            ],
            "min" : [
                -0.9999998211860657,
                -0.9465509057044983,
                -1
            ],
            "type" : "VEC3"
        },
        {
            "bufferView" : 1,
            "componentType" : 5126,
            "count" : 671,
            "type" : "VEC3"
        },
        {
            "bufferView" : 2,
            "componentType" : 5126,
            "count" : 671,
            "type" : "VEC2"
        },
        {
            "bufferView" : 3,
            "componentType" : 5123,
            "count" : 3276,
            "type" : "SCALAR"
        },
        {
            "bufferView" : 4,
            "componentType" : 5126,
            "count" : 203,
            "max" : [
                0.5551010370254517,
                -0.31053993105888367,
                0.5534695982933044
            ],
            "min" : [
                -0.5282174944877625,
                -0.9513745903968811,
                -0.5621027946472168
            ],
            "type" : "VEC3"
        },
        {
            "bufferView" : 5,
            "componentType" : 5126,
            "count" : 203,
            "type" : "VEC3"
        },
        {
            "bufferView" : 6,
            "componentType" : 5126,
            "count" : 203,
            "type" : "VEC2"
        },
        {
            "bufferView" : 7,
            "componentType" : 5123,
            "count" : 606,
            "type" : "SCALAR"
        },
        {
            "bufferView" : 8,
            "componentType" : 5126,
            "count" : 92,
            "max" : [
                0.3166242837905884,
                -0.46116626262664795,
                0.18387117981910706
            ],
            "min" : [
                -0.16998662054538727,
                -0.9513745903968811,
                -0.1789056956768036
            ],
            "type" : "VEC3"
        },
        {
            "bufferView" : 9,
            "componentType" : 5126,
            "count" : 92,
            "type" : "VEC3"
        },
        {
            "bufferView" : 10,
            "componentType" : 5126,
            "count" : 92,
            "type" : "VEC2"
        },
        {
            "bufferView" : 11,
            "componentType" : 5123,
            "count" : 198,
            "type" : "SCALAR"
        },
        {
            "bufferView" : 12,
            "componentType" : 5126,
            "count" : 559,
            "max" : [
                1.0969295501708984,
                1.113573670387268,
                1.088637113571167
            ],
            "min" : [
                -1.105020523071289,
                -1.0883768796920776,
                -1.1133137941360474
            ],
            "type" : "VEC3"
        },
        {
            "bufferView" : 13,
            "componentType" : 5126,
            "count" : 559,
            "type" : "VEC3"
        },
        {
            "bufferView" : 14,
            "componentType" : 5126,
            "count" : 559,
            "type" : "VEC2"
        },
        {
            "bufferView" : 15,
            "componentType" : 5123,
            "count" : 2880,
            "type" : "SCALAR"
        },
        {
            "bufferView" : 16,
            "componentType" : 5126,
            "count" : 150,
            "max" : [
                6.208333333333333
            ],
            "min" : [
                0
            ],
            "type" : "SCALAR"
        },
        {
            "bufferView" : 17,
            "componentType" : 5126,
            "count" : 150,
            "type" : "VEC3"
        },
        {
            "bufferView" : 18,
            "componentType" : 5126,
            "count" : 150,
            "type" : "VEC4"
        }
    ],
    "bufferViews" : [
        {
            "buffer" : 0,
            "byteLength" : 8052,
            "byteOffset" : 0
        },
        {
            "buffer" : 0,
            "byteLength" : 8052,
            "byteOffset" : 8052
        },
        {
            "buffer" : 0,
            "byteLength" : 5368,
            "byteOffset" : 16104
        },
        {
            "buffer" : 0,
            "byteLength" : 6552,
            "byteOffset" : 21472
        },
        {
            "buffer" : 0,
            "byteLength" : 2436,
            "byteOffset" : 28024
        },
        {
            "buffer" : 0,
            "byteLength" : 2436,
            "byteOffset" : 30460
        },
        {
            "buffer" : 0,
            "byteLength" : 1624,
            "byteOffset" : 32896
        },
        {
            "buffer" : 0,
            "byteLength" : 1212,
            "byteOffset" : 34520
        },
        {
            "buffer" : 0,
            "byteLength" : 1104,
            "byteOffset" : 35732
        },
        {
            "buffer" : 0,
            "byteLength" : 1104,
            "byteOffset" : 36836
        },
        {
            "buffer" : 0,
            "byteLength" : 736,
            "byteOffset" : 37940
        },
        {
            "buffer" : 0,
            "byteLength" : 396,
            "byteOffset" : 38676
        },
        {
            "buffer" : 0,
            "byteLength" : 6708,
            "byteOffset" : 39072
        },
        {
            "buffer" : 0,
            "byteLength" : 6708,
            "byteOffset" : 45780
        },
        {
            "buffer" : 0,
            "byteLength" : 4472,
            "byteOffset" : 52488
        },
        {
            "buffer" : 0,
            "byteLength" : 5760,
            "byteOffset" : 56960
        },
        {
            "buffer" : 0,
            "byteLength" : 600,
            "byteOffset" : 62720
        },
        {
            "buffer" : 0,
            "byteLength" : 1800,
            "byteOffset" : 63320
        },
        {
            "buffer" : 0,
            "byteLength" : 2400,
            "byteOffset" : 65120
        }
    ],
    "buffers" : [
        {
            "byteLength" : 67520,
            "uri" : "data:application/octet-stream;base64,"
        }
    ]
}
